Coordinates
version=1
nRows=8
nColumns=42
inDegrees=yes

Units are S.I. units (second, meters, Newtons, ...)
If the header above contains a line with 'inDegrees', this indicates whether rotational values are in degrees (yes) or radians (no).

endheader
time	pelvis_tilt	pelvis_list	pelvis_rotation	pelvis_tx	pelvis_ty	pelvis_tz	hip_flexion_r	hip_adduction_r	hip_rotation_r	knee_angle_r	knee_adduction_r	knee_angle_r_beta	ankle_angle_r	subtalar_angle_r	mtp_angle_r	hip_flexion_l	hip_adduction_l	hip_rotation_l	knee_angle_l	knee_adduction_l	knee_angle_l_beta	ankle_angle_l	subtalar_angle_l	mtp_angle_l	lumbar_extension	lumbar_bending	lumbar_rotation	arm_flex_r	arm_add_r	arm_rot_r	elbow_flex_r	pro_sup_r	wrist_flex_r	wrist_dev_r	arm_flex_l	arm_add_l	arm_rot_l	elbow_flex_l	pro_sup_l	wrist_flex_l	wrist_dev_l
      1.71000000	     12.14158244	      4.68306234	     13.04181074	     -0.08778655	      0.88707412	      0.35256227	     -8.23926297	      1.17958045	    -29.59191913	     26.82500549	     -4.33503633	      0.46818467	     26.43968063	     13.22880368	     -7.61617112	     21.60421846	     -4.26998458	     -0.33304645	     30.46081619	      5.64894791	      0.53164154	      5.65796462	     14.50609980	     -7.61617112	    -22.56278208	     -0.40024503	      2.53925957	    -15.46611676	     -8.16465709	    -19.47901700	     62.45642154	     90.00000001	      0.00000000	      0.00000000	    -12.36955337	    -14.29659136	      8.79736033	     93.62009833	     90.00000001	      0.00000000	      0.00000000
      1.72000000	     11.99032295	      4.51710426	     12.93586479	     -0.08473204	      0.88634210	      0.35238940	     -8.26751066	      1.26569920	    -29.59240723	     26.84438261	     -4.30831867	      0.46852286	     26.44493244	     13.24338236	     -7.61607628	     21.37302533	     -4.21533256	     -0.30347669	     30.49908793	      5.64502960	      0.53230950	      5.63001589	     14.53042259	     -7.61607628	    -22.31949315	     -0.41105625	      2.58903294	    -15.42095282	     -8.19316956	    -19.47952918	     62.46839663	     90.00000001	      0.00000000	      0.00000000	    -12.38224572	    -14.33698769	      8.73552944	     93.61115555	     90.00000001	      0.00000000	      0.00000000
      1.73000000	     11.90919479	      4.35151971	     12.66237863	     -0.08165459	      0.88581281	      0.35243331	     -8.37187542	      1.35089100	    -29.63752941	     26.77747054	     -4.34831936	      0.46735503	     26.73521529	     14.09569901	     -7.61137305	     20.95492758	     -4.24752559	     -0.43523664	     30.31309479	      5.62771849	      0.52906331	      5.37987758	     15.22364760	     -7.61137305	    -22.21666671	     -0.43481206	      2.63708286	    -15.06051075	     -8.35828865	    -19.20982113	     62.30970398	     90.00000001	      0.00000000	      0.00000000	    -12.72458089	    -13.94457319	      7.16926072	     93.45917475	     90.00000001	      0.00000000	      0.00000000
      1.74000000	     11.74103253	      4.17490835	     12.50781938	     -0.07852657	      0.88512855	      0.35226437	     -8.40177052	      1.40570598	    -29.66072309	     26.77283891	     -4.27911448	      0.46727419	     26.74397424	     14.12602487	     -7.61118639	     20.76491395	     -4.19668178	     -0.35159744	     30.34093880	      5.57463147	      0.52954928	      5.34772809	     15.26008990	     -7.61118639	    -21.99560093	     -0.42834699	      2.75692116	    -14.94139851	     -8.45711029	    -19.22098412	     62.35541778	     90.00000001	      0.00000000	      0.00000000	    -12.73188947	    -14.06992051	      7.08866224	     93.45105443	     90.00000001	      0.00000000	      0.00000000
      1.75000000	     11.57148274	      4.00176302	     12.32517123	     -0.07535620	      0.88446996	      0.35212258	     -8.43293581	      1.46408463	    -29.65851591	     26.75492599	     -4.22171015	      0.46696155	     26.76276739	     14.19173864	     -7.61096414	     20.56709261	     -4.16796817	     -0.27062383	     30.32767936	      5.54296528	      0.52931786	      5.30243642	     15.31608641	     -7.61096414	    -21.78752784	     -0.42836546	      2.88014704	    -14.74997536	     -8.56152084	    -19.22368583	     62.43469315	     90.00000001	      0.00000000	      0.00000000	    -12.74738536	    -14.23497365	      6.97084007	     93.42993980	     90.00000001	      0.00000000	      0.00000000
      1.76000000	     11.40592724	      3.83881289	     12.13106516	     -0.07213403	      0.88385790	      0.35198518	     -8.47853479	      1.52218166	    -29.62377774	     26.72091746	     -4.17391611	      0.46636799	     26.79499613	     14.30899974	     -7.61068187	     20.36065405	     -4.15671372	     -0.19334318	     30.27701244	      5.53507344	      0.52843355	      5.24712923	     15.39461178	     -7.61068187	    -21.59946592	     -0.43895816	      2.96758460	    -14.49395822	     -8.66283711	    -19.21451824	     62.55084500	     90.00000001	      0.00000000	      0.00000000	    -12.76723209	    -14.41198794	      6.82420617	     93.40030086	     90.00000001	      0.00000000	      0.00000000
      1.77000000	     11.24416686	      3.68620279	     11.93229563	     -0.06881687	      0.88328707	      0.35181889	     -8.54139180	      1.56319099	    -29.59100005	     26.67712265	     -4.12578032	      0.46560363	     26.83138708	     14.43710356	     -7.61042019	     20.16175443	     -4.14589853	     -0.11804202	     30.23718919	      5.52581424	      0.52773851	      5.20251479	     15.46937495	     -7.61042019	    -21.41408756	     -0.45806921	      3.02712333	    -14.22309360	     -8.73828307	    -19.19450051	     62.68133105	     90.00000001	      0.00000000	      0.00000000	    -12.78271772	    -14.55496325	      6.69203238	     93.37709643	     90.00000001	      0.00000000	      0.00000000
      1.78000000	     11.08284886	      3.54775585	     11.73216693	     -0.06545982	      0.88272635	      0.35162928	     -8.62441926	      1.59848986	    -29.55222567	     26.61802893	     -4.07450521	      0.46457225	     26.87836338	     14.59789082	     -7.61013736	     19.98054022	     -4.13458627	     -0.04877623	     30.19046997	      5.52040050	      0.52692310	      5.17123480	     15.54688136	     -7.61013736	    -21.24898729	     -0.48646036	      3.05988140	    -13.90100684	     -8.81707095	    -19.16673486	     62.84699314	     90.00000001	      0.00000000	      0.00000000	    -12.79239529	    -14.70218385	      6.55190167	     93.35668016	     90.00000001	      0.00000000	      0.00000000
